<svg width="25" height="25" viewBox="0 0 25 25" fill="none" xmlns="http://www.w3.org/2000/svg">
<g id="Logo">
<path id="Union" d="M22.2466 18.1569C23.4541 18.1569 24.433 17.178 24.433 15.9704V3.44694C24.433 2.2394 23.4541 1.2605 22.2466 1.2605L3.19426 1.2605C1.98672 1.2605 1.00782 2.2394 1.00781 3.44694L1.00781 15.9704C1.00781 17.178 1.98672 18.1569 3.19425 18.1569H12.1156C12.1184 18.1598 12.1213 18.1627 12.1242 18.1656L17.7735 23.8149C18.2326 24.274 19.0176 23.9489 19.0176 23.2996V18.1569H22.2466Z" stroke="#BEBEBE"/>
<rect id="Rectangle 15" x="6.96973" y="11.9995" width="10.9251" height="1.22119" rx="0.610597" fill="#BEBEBE"/>
<rect id="Rectangle 16" x="6.96973" y="8.85327" width="10.9251" height="1.22119" rx="0.610597" fill="#BEBEBE"/>
<rect id="Rectangle 17" x="6.96973" y="6.03296" width="10.9251" height="1.22119" rx="0.610597" fill="#BEBEBE"/>
</g>
</svg>
